<svg xmlns="http://www.w3.org/2000/svg" width="198.803" height="103.948" viewBox="0 0 198.803 103.948"><defs><style>.a{fill:#fff;}</style></defs><g transform="translate(0)"><path class="a" d="M1592.6,731.266a1.248,1.248,0,0,0,.61-.162,1.412,1.412,0,0,0,.427-.77l1.55-5.593c.031-.111.062-.242.093-.392a1.967,1.967,0,0,0,.047-.392.408.408,0,0,0-.21-.4,1.843,1.843,0,0,0-.679-.133v-.2h3.133a4.365,4.365,0,0,1,1.5.222,1.572,1.572,0,0,1,1.137,1.573,1.9,1.9,0,0,1-.988,1.7,4.98,4.98,0,0,1-1.5.538l1.171,3.1a1.82,1.82,0,0,0,.394.673.983.983,0,0,0,.661.236v.2h-1.87l-1.555-4.092-.825-.06-.71,2.635c-.031.109-.058.214-.084.314a2.514,2.514,0,0,0-.06.468.417.417,0,0,0,.2.4,1.619,1.619,0,0,0,.661.131v.2h-3.1Zm3.782-4.373c.066.006.138.01.217.01a2.865,2.865,0,0,0,1.616-.44,1.654,1.654,0,0,0,.661-1.487,1.171,1.171,0,0,0-.452-1.078,2.152,2.152,0,0,0-1.164-.285,1.044,1.044,0,0,0-.4.062.4.4,0,0,0-.2.277l-.807,2.889.53.052" transform="translate(-1579.328 -630.123)"/><path class="a" d="M1636.353,737.7a3.526,3.526,0,0,1,2.524-1.283,1.213,1.213,0,0,1,.766.222.789.789,0,0,1,.283.659,1.8,1.8,0,0,1-1.039,1.517,5.433,5.433,0,0,1-2.189.774l-.351.043c-.053.17-.092.3-.112.4a1.947,1.947,0,0,0-.031.38,1.054,1.054,0,0,0,.355.846,1.266,1.266,0,0,0,.842.3,1.941,1.941,0,0,0,.983-.308,7.983,7.983,0,0,0,.858-.641l.16.14a3.874,3.874,0,0,1-.795.724,3.165,3.165,0,0,1-1.846.659,1.629,1.629,0,0,1-1.147-.462,1.728,1.728,0,0,1-.495-1.324,3.824,3.824,0,0,1,1.234-2.651m2,.827a1.813,1.813,0,0,0,.741-1.3.578.578,0,0,0-.111-.372.4.4,0,0,0-.328-.139,1.182,1.182,0,0,0-.786.343,4.6,4.6,0,0,0-.7.77,6.044,6.044,0,0,0-.517.967c-.071.166-.146.351-.222.561a3.613,3.613,0,0,0,1.918-.829" transform="translate(-1613.234 -640.647)"/><path class="a" d="M1663.689,740.1h.2a4.012,4.012,0,0,0,.322,1.092,1.085,1.085,0,0,0,1.012.635.838.838,0,0,0,.632-.265.968.968,0,0,0,.257-.7,1.306,1.306,0,0,0-.064-.444,1.468,1.468,0,0,0-.164-.314l-.513-.758c-.309-.462-.5-.77-.581-.926a1.536,1.536,0,0,1-.178-.7,1.347,1.347,0,0,1,.384-.947,1.434,1.434,0,0,1,1.1-.411,2.5,2.5,0,0,1,.692.115,2.332,2.332,0,0,0,.53.115.351.351,0,0,0,.228-.062.646.646,0,0,0,.136-.168h.179l-.254,1.755h-.2a2.743,2.743,0,0,0-.24-.9.988.988,0,0,0-.938-.564.767.767,0,0,0-.485.17.6.6,0,0,0-.213.5,1,1,0,0,0,.1.445,6.638,6.638,0,0,0,.437.68l.437.628a5.677,5.677,0,0,1,.482.8,1.586,1.586,0,0,1,.143.667,1.4,1.4,0,0,1-.568,1.123,2.1,2.1,0,0,1-1.353.456,3.555,3.555,0,0,1-.721-.105,4.633,4.633,0,0,0-.544-.105.255.255,0,0,0-.182.057.513.513,0,0,0-.107.166h-.2Z" transform="translate(-1635.822 -640.594)"/><path class="a" d="M1695.069,736.85a2.071,2.071,0,0,1,.427,1.3,3.817,3.817,0,0,1-1.155,2.568,3.448,3.448,0,0,1-2.544,1.308,1.873,1.873,0,0,1-1.362-.493,1.838,1.838,0,0,1-.513-1.39,3.767,3.767,0,0,1,1.149-2.585,3.43,3.43,0,0,1,2.536-1.265,1.738,1.738,0,0,1,1.462.554m-3.823,4.566a.881.881,0,0,0,.748.335c.673,0,1.265-.505,1.783-1.519a5.341,5.341,0,0,0,.661-2.394,2.073,2.073,0,0,0-.112-.745.787.787,0,0,0-.79-.538q-.944,0-1.772,1.413a5.094,5.094,0,0,0-.775,2.6,1.354,1.354,0,0,0,.255.848" transform="translate(-1656.939 -640.549)"/><path class="a" d="M1724.961,736.242a.153.153,0,0,1,.021.078c0,.041-.008.072-.012.094l-.627,2.408.142-.287a8.529,8.529,0,0,1,1.039-1.589,1.594,1.594,0,0,1,1.13-.719.548.548,0,0,1,.448.191.724.724,0,0,1,0,.9.545.545,0,0,1-.434.181.493.493,0,0,1-.289-.072.593.593,0,0,1-.154-.174l-.074-.136a.18.18,0,0,0-.058-.059.163.163,0,0,0-.084-.021q-.24,0-.7.673a10.108,10.108,0,0,0-.811,1.456c-.144.315-.3.737-.481,1.259q-.167.494-.449,1.4h-.947l1.029-3.714c.056-.215.105-.406.138-.575a2.143,2.143,0,0,0,.053-.413.4.4,0,0,0-.092-.282.429.429,0,0,0-.322-.1,1.84,1.84,0,0,0-.185.012l-.266.031v-.2l.248-.051q.48-.1,1.051-.209c.383-.076.583-.111.6-.111a.088.088,0,0,1,.078.033" transform="translate(-1683.02 -640.479)"/><path class="a" d="M1749.226,736.243a.752.752,0,0,1,.023-.133l1.193-4.306h-.937a.564.564,0,0,1,.025-.211.282.282,0,0,1,.125-.088,5.263,5.263,0,0,0,.973-.513,6.2,6.2,0,0,0,.94-.953l.1-.119a.163.163,0,0,1,.047-.041.126.126,0,0,1,.059-.015.375.375,0,0,1,.086.025.278.278,0,0,1,.021.078.341.341,0,0,1,0,.07l-.363,1.345h1.018l-.074.421h-1.066l-1.137,4.146a.283.283,0,0,0,.018.213.171.171,0,0,0,.167.1c.107,0,.257-.107.453-.322q.163-.172.561-.684l.16.091-.086.131a4.723,4.723,0,0,1-.937,1.107,1.275,1.275,0,0,1-.771.312.565.565,0,0,1-.456-.167.555.555,0,0,1-.143-.377c0-.031,0-.07.006-.113" transform="translate(-1704.228 -635.419)"/><path class="a" d="M1767.053,740.1h.2a4.019,4.019,0,0,0,.322,1.092,1.084,1.084,0,0,0,1.011.635.838.838,0,0,0,.632-.265.966.966,0,0,0,.257-.7,1.294,1.294,0,0,0-.064-.444,1.5,1.5,0,0,0-.164-.314l-.513-.758q-.461-.693-.58-.926a1.544,1.544,0,0,1-.177-.7,1.346,1.346,0,0,1,.383-.947,1.435,1.435,0,0,1,1.1-.411,2.5,2.5,0,0,1,.692.115,2.327,2.327,0,0,0,.53.115.351.351,0,0,0,.228-.062.63.63,0,0,0,.136-.168h.18l-.254,1.755h-.2a2.739,2.739,0,0,0-.24-.9.987.987,0,0,0-.938-.564.769.769,0,0,0-.485.17.605.605,0,0,0-.213.5,1,1,0,0,0,.1.445,6.622,6.622,0,0,0,.437.68l.437.628a5.725,5.725,0,0,1,.482.8,1.585,1.585,0,0,1,.142.667,1.4,1.4,0,0,1-.567,1.123,2.1,2.1,0,0,1-1.353.456,3.558,3.558,0,0,1-.722-.105,4.592,4.592,0,0,0-.544-.105.253.253,0,0,0-.181.057.521.521,0,0,0-.107.166h-.2Z" transform="translate(-1718.255 -640.594)"/><path class="a" d="M1816.667,725.47c-.008-.111-.011-.228-.011-.351a2.87,2.87,0,0,1,.635-1.969,1.8,1.8,0,0,1,1.339-.724,1.288,1.288,0,0,1,.975.353,1.121,1.121,0,0,1,.339.8,1.844,1.844,0,0,1-.8,1.408,7.56,7.56,0,0,1-1.371.827,12.976,12.976,0,0,0,.468,1.62,5.763,5.763,0,0,0,.63,1.38,10.85,10.85,0,0,0,.74-.983,1.41,1.41,0,0,0,.253-.753c0-.174-.047-.283-.138-.329a1.414,1.414,0,0,0-.492-.1v-.236h2.34v.236a1.558,1.558,0,0,0-.679.222,3.1,3.1,0,0,0-.555.675q-.483.7-.7,1c-.144.2-.324.433-.536.7a2.826,2.826,0,0,0,.673.852,1.343,1.343,0,0,0,.889.335,1.085,1.085,0,0,0,.5-.125,2.171,2.171,0,0,0,.365-.253l.148.148a3.416,3.416,0,0,1-.6.55,1.811,1.811,0,0,1-1.01.308,1.9,1.9,0,0,1-1.144-.382,3.43,3.43,0,0,1-.61-.624,10.655,10.655,0,0,1-1.214.723,3.157,3.157,0,0,1-1.309.283,2.453,2.453,0,0,1-1.677-.55,1.783,1.783,0,0,1-.626-1.405,2.053,2.053,0,0,1,.28-1.043,2.994,2.994,0,0,1,.745-.858,3.968,3.968,0,0,1,.643-.435q.3-.158,1.559-.725c-.03-.277-.049-.47-.057-.581m-1.5,4.515a1.633,1.633,0,0,0,1.133.433,2.409,2.409,0,0,0,1.019-.222,2.709,2.709,0,0,0,.753-.5,6.861,6.861,0,0,1-.724-1.408,11.686,11.686,0,0,1-.6-1.813,5.91,5.91,0,0,0-1.285.759,1.92,1.92,0,0,0-.777,1.5,1.618,1.618,0,0,0,.477,1.256m3.515-5.3a1.633,1.633,0,0,0,.4-1.117.991.991,0,0,0-.131-.532.467.467,0,0,0-.438-.214.758.758,0,0,0-.741.635,4.042,4.042,0,0,0-.109,1.074c0,.1,0,.2.009.3s.024.3.051.591a4.993,4.993,0,0,0,.963-.733" transform="translate(-1755.488 -629.488)"/><path class="a" d="M1883.872,723.223v.2a2.012,2.012,0,0,0-.667.117.518.518,0,0,0-.314.511c0,.033,0,.068.006.1s.008.068.012.1l.811,5.494h.076l2.547-4.4c.128-.218.249-.444.366-.674a2.29,2.29,0,0,0,.288-.813.3.3,0,0,0-.179-.308,2.358,2.358,0,0,0-.61-.134v-.2h2.344v.2a1.283,1.283,0,0,0-.4.134,1.056,1.056,0,0,0-.3.359l-4.712,7.78h-.245l-1.071-6.578a5.8,5.8,0,0,0-.329-1.4.843.843,0,0,0-.665-.295v-.2Z" transform="translate(-1809.182 -630.123)"/><path class="a" d="M1914.216,736.554a.931.931,0,0,1,.225.357l.031.088.138-.466a.474.474,0,0,1,.045-.107.116.116,0,0,1,.086-.033l.713-.08c.037,0,.058.008.065.022a.165.165,0,0,1,0,.078c-.018.053-.031.1-.041.127s-.021.074-.039.133l-.61,2.207c-.133.482-.246.9-.337,1.248a9.119,9.119,0,0,0-.23,1.08.162.162,0,0,0,.045.127.174.174,0,0,0,.115.041.271.271,0,0,0,.123-.037,1.65,1.65,0,0,0,.168-.111l.109-.088c.035-.029.073-.06.117-.1l.156-.144.4-.4.148.131a6.589,6.589,0,0,1-1.058,1.113,1.312,1.312,0,0,1-.761.294.435.435,0,0,1-.363-.162.623.623,0,0,1-.126-.4,3.383,3.383,0,0,1,.084-.635c.055-.279.111-.511.164-.7q-.112.183-.373.54a4.464,4.464,0,0,1-.643.688,3.078,3.078,0,0,1-.864.569,1.879,1.879,0,0,1-.616.111,1.253,1.253,0,0,1-.907-.411,1.588,1.588,0,0,1-.407-1.164,4.3,4.3,0,0,1,1.173-2.706,3.347,3.347,0,0,1,2.509-1.464,1.062,1.062,0,0,1,.76.253m-.2.234a.669.669,0,0,0-.5-.211c-.679,0-1.306.515-1.89,1.546a4.968,4.968,0,0,0-.766,2.341,1.02,1.02,0,0,0,.212.719.692.692,0,0,0,.527.226q.931,0,1.792-1.5a4.853,4.853,0,0,0,.831-2.464.9.9,0,0,0-.207-.655" transform="translate(-1832.269 -640.552)"/><path class="a" d="M1948.062,736.761a.965.965,0,0,1,.333.659.567.567,0,0,1-.578.607.55.55,0,0,1-.384-.141.467.467,0,0,1-.154-.352.741.741,0,0,1,.1-.345.707.707,0,0,0,.1-.24.218.218,0,0,0-.126-.189.808.808,0,0,0-.4-.076,2.07,2.07,0,0,0-1.725,1.131,4.293,4.293,0,0,0-.731,2.372,1.8,1.8,0,0,0,.3,1.094,1.038,1.038,0,0,0,.889.394,1.729,1.729,0,0,0,.921-.275,3.585,3.585,0,0,0,.825-.7l.042-.049.179.137a4.536,4.536,0,0,1-.832.844,2.622,2.622,0,0,1-1.575.513,1.773,1.773,0,0,1-1.337-.528,1.972,1.972,0,0,1-.514-1.441,3.646,3.646,0,0,1,1.143-2.579,3.361,3.361,0,0,1,2.445-1.172,1.476,1.476,0,0,1,1.085.337" transform="translate(-1859.078 -640.651)"/><path class="a" d="M1976.244,736.554a.916.916,0,0,1,.224.357l.032.088.138-.466a.469.469,0,0,1,.045-.107.114.114,0,0,1,.085-.033l.714-.08c.037,0,.058.008.064.022a.163.163,0,0,1,0,.078c-.018.053-.031.1-.041.127s-.022.074-.039.133l-.611,2.207c-.132.482-.245.9-.339,1.248a9.5,9.5,0,0,0-.228,1.08.161.161,0,0,0,.045.127.175.175,0,0,0,.115.041.274.274,0,0,0,.123-.037,1.624,1.624,0,0,0,.168-.111l.109-.088c.035-.029.074-.06.117-.1l.156-.144.4-.4.148.131a6.606,6.606,0,0,1-1.059,1.113,1.311,1.311,0,0,1-.76.294.435.435,0,0,1-.363-.162.623.623,0,0,1-.127-.4,3.444,3.444,0,0,1,.085-.635c.055-.279.111-.511.163-.7-.074.122-.2.3-.372.54a4.519,4.519,0,0,1-.644.688,3.062,3.062,0,0,1-.863.569,1.885,1.885,0,0,1-.616.111,1.251,1.251,0,0,1-.906-.411,1.588,1.588,0,0,1-.408-1.164,4.306,4.306,0,0,1,1.173-2.706,3.346,3.346,0,0,1,2.51-1.464,1.059,1.059,0,0,1,.759.253m-.2.234a.671.671,0,0,0-.5-.211q-1.017,0-1.889,1.546a4.964,4.964,0,0,0-.766,2.341,1.02,1.02,0,0,0,.212.719.692.692,0,0,0,.526.226q.931,0,1.791-1.5a4.849,4.849,0,0,0,.832-2.464.9.9,0,0,0-.207-.655" transform="translate(-1881.736 -640.552)"/><path class="a" d="M2005.96,736.243a.86.86,0,0,1,.024-.133l1.193-4.306h-.937a.565.565,0,0,1,.024-.211.281.281,0,0,1,.125-.088,5.22,5.22,0,0,0,.973-.513,6.241,6.241,0,0,0,.94-.953l.1-.119a.148.148,0,0,1,.046-.041.125.125,0,0,1,.058-.015.345.345,0,0,1,.086.025.259.259,0,0,1,.022.078.325.325,0,0,1,0,.07l-.363,1.345h1.018l-.074.421h-1.066l-1.137,4.146a.289.289,0,0,0,.018.213.172.172,0,0,0,.168.1q.161,0,.452-.322.164-.172.561-.684l.161.091-.086.131a4.756,4.756,0,0,1-.937,1.107,1.275,1.275,0,0,1-.77.312.567.567,0,0,1-.457-.167.558.558,0,0,1-.142-.377c0-.031,0-.07.006-.113" transform="translate(-1908.973 -635.419)"/><path class="a" d="M2027.754,725.68a.05.05,0,0,1,.027.053l-1.245,4.406a2.837,2.837,0,0,0-.086.419.348.348,0,0,0,.036.162c.021.049.074.074.156.074.138,0,.323-.123.553-.365a6.864,6.864,0,0,0,.5-.618l.162.137-.062.086a6.546,6.546,0,0,1-.767.932,1.389,1.389,0,0,1-.926.445.543.543,0,0,1-.44-.223.825.825,0,0,1-.175-.524,1.8,1.8,0,0,1,.023-.312q.026-.132.093-.392l.88-3.172c.011-.049.021-.094.028-.135a.694.694,0,0,0,.013-.125c0-.148-.054-.24-.163-.273a2.528,2.528,0,0,0-.644-.053V726c.338-.041.582-.073.731-.1l.452-.072c.194-.031.381-.068.554-.109a.744.744,0,0,1,.3-.041m-.582-1.546a.684.684,0,0,1-.18-.475.693.693,0,0,1,.18-.482.562.562,0,0,1,.432-.2.577.577,0,0,1,.434.2.687.687,0,0,1,.182.482.67.67,0,0,1-.182.478.575.575,0,0,1-.434.195.556.556,0,0,1-.432-.2" transform="translate(-1924.55 -629.929)"/><path class="a" d="M2048.22,736.85a2.076,2.076,0,0,1,.427,1.3,3.816,3.816,0,0,1-1.154,2.568,3.449,3.449,0,0,1-2.544,1.308,1.875,1.875,0,0,1-1.363-.493,1.835,1.835,0,0,1-.512-1.39,3.77,3.77,0,0,1,1.148-2.585,3.434,3.434,0,0,1,2.536-1.265,1.739,1.739,0,0,1,1.462.554m-3.824,4.566a.883.883,0,0,0,.749.335q1.009,0,1.784-1.519a5.347,5.347,0,0,0,.66-2.394,2.1,2.1,0,0,0-.11-.745.789.789,0,0,0-.79-.538q-.944,0-1.771,1.413a5.1,5.1,0,0,0-.777,2.6,1.361,1.361,0,0,0,.255.848" transform="translate(-1938.575 -640.549)"/><path class="a" d="M2075.322,741.942l1.055-3.813c.091-.323.144-.519.158-.586a1.032,1.032,0,0,0,.021-.221.385.385,0,0,0-.1-.283.575.575,0,0,0-.4-.1c-.049,0-.1,0-.144.008l-.158.021v-.2c.266-.041.455-.072.568-.091s.234-.045.364-.074l1.1-.242a.155.155,0,0,1,.05.057l-.819,2.653a14.707,14.707,0,0,1,1.266-1.716,2.4,2.4,0,0,1,1.606-.994.994.994,0,0,1,.471.105.761.761,0,0,1,.379.735,1.589,1.589,0,0,1-.032.308c-.02.107-.047.222-.08.345l-.813,2.956-.055.226a.94.94,0,0,0-.031.189.332.332,0,0,0,.042.166.149.149,0,0,0,.138.074.561.561,0,0,0,.356-.189,7.052,7.052,0,0,0,.657-.8l.179.16a7.531,7.531,0,0,1-.788.963,1.412,1.412,0,0,1-.948.487.672.672,0,0,1-.4-.139.585.585,0,0,1-.192-.5,1.874,1.874,0,0,1,.016-.222,1.143,1.143,0,0,1,.041-.2l.786-3a3.472,3.472,0,0,0,.084-.406,1.681,1.681,0,0,0,.021-.224.463.463,0,0,0-.07-.257.284.284,0,0,0-.254-.107q-.468,0-1.182.838a10.932,10.932,0,0,0-.85,1.191,6.351,6.351,0,0,0-.508,1.043q-.183.512-.588,1.852Z" transform="translate(-1964.293 -640.596)"/><path class="a" d="M2123.965,731.262a1.271,1.271,0,0,0,.612-.16,1.415,1.415,0,0,0,.425-.772l1.547-5.591c.05-.186.089-.339.117-.46a1.611,1.611,0,0,0,.038-.312.428.428,0,0,0-.224-.413,1.871,1.871,0,0,0-.763-.129v-.205h6.291l-.4,1.926-.26-.019c.013-.123.021-.24.025-.353s.005-.156.005-.127a.777.777,0,0,0-.44-.819,5.714,5.714,0,0,0-1.868-.195,3.26,3.26,0,0,0-.814.06.377.377,0,0,0-.229.267l-.823,2.943a7.824,7.824,0,0,0,2.006-.208,2.014,2.014,0,0,0,.717-1.02l.236.056-.865,2.924-.246-.055c.041-.248.067-.4.074-.452a1.178,1.178,0,0,0,.011-.177.506.506,0,0,0-.285-.522,3.085,3.085,0,0,0-1.049-.119h-.719l-.786,2.819a2.325,2.325,0,0,0-.059.242,1.125,1.125,0,0,0-.022.228.387.387,0,0,0,.105.3,1.174,1.174,0,0,0,.753.171,5.869,5.869,0,0,0,2.427-.363,4.192,4.192,0,0,0,1.46-1.407l.2.105-.79,2.043h-6.417Z" transform="translate(-2003.085 -630.12)"/><path class="a" d="M2162.213,741.057a.528.528,0,0,1,.3-.1.519.519,0,0,1,.148.022.733.733,0,0,1,.163.07l.216.117a.247.247,0,0,0,.082.035.432.432,0,0,0,.09.01.337.337,0,0,0,.237-.078,6.789,6.789,0,0,0,.429-.54q.229-.3,1.037-1.474c0-.029-.049-.252-.142-.665s-.181-.764-.26-1.053a2.243,2.243,0,0,0-.211-.577.383.383,0,0,0-.344-.139,1.809,1.809,0,0,0-.339.062c-.107.023-.223.053-.347.086l-.054-.191.686-.234c.176-.063.34-.111.49-.148a1.642,1.642,0,0,1,.385-.057.481.481,0,0,1,.389.154,2.418,2.418,0,0,1,.335.975l.129.7a11.052,11.052,0,0,1,.863-1.2,2.59,2.59,0,0,1,.525-.468.9.9,0,0,1,.47-.154.8.8,0,0,1,.339.061.423.423,0,0,1,.234.421.444.444,0,0,1-.117.325.41.41,0,0,1-.3.117.46.46,0,0,1-.13-.016.787.787,0,0,1-.13-.045l-.162-.068c-.044-.021-.087-.037-.128-.053a.332.332,0,0,0-.094-.021c-.183,0-.44.24-.77.719a3.45,3.45,0,0,0-.493.829,4.6,4.6,0,0,0,.114.6q.113.509.251,1.076a5.258,5.258,0,0,0,.208.741c.1.222.2.333.32.333a.477.477,0,0,0,.341-.185,7.608,7.608,0,0,0,.519-.666l.172.105a5.345,5.345,0,0,1-.548.821,1.446,1.446,0,0,1-1.026.643.545.545,0,0,1-.487-.3,2.257,2.257,0,0,1-.205-.569l-.38-1.523-1.266,1.659a3.963,3.963,0,0,1-.572.579.8.8,0,0,1-.5.15.569.569,0,0,1-.538-.247.587.587,0,0,1-.08-.308.383.383,0,0,1,.148-.343" transform="translate(-2033.469 -640.474)"/><path class="a" d="M2188.156,744.318a.915.915,0,0,0,.557-.138.81.81,0,0,0,.276-.472l1.706-6.024a2.758,2.758,0,0,0,.077-.324,1.107,1.107,0,0,0,.015-.154.336.336,0,0,0-.15-.3.8.8,0,0,0-.44-.1c-.043,0-.082,0-.119,0a.973.973,0,0,0-.117.016l-.012-.2,2-.29c.024,0,.044.011.055.049a1.247,1.247,0,0,1-.047.167l-.338,1.137a4.877,4.877,0,0,1,.743-.827,1.946,1.946,0,0,1,1.272-.521,1.38,1.38,0,0,1,1.057.41,1.8,1.8,0,0,1,.381,1.258,4.031,4.031,0,0,1-1.22,2.765,3.46,3.46,0,0,1-2.509,1.3,1.553,1.553,0,0,1-.435-.053,3.266,3.266,0,0,1-.435-.174l-.1.379c-.11.421-.184.721-.225.9a7.827,7.827,0,0,0-.16.8c0,.167.053.275.16.32a2.269,2.269,0,0,0,.635.093v.183h-2.629Zm5.688-6.979a.67.67,0,0,0-.678-.451,1.5,1.5,0,0,0-.93.427,3.15,3.15,0,0,0-.835,1.408c-.179.517-.349,1.053-.5,1.616a6.736,6.736,0,0,0-.237.99.377.377,0,0,0,.193.347.913.913,0,0,0,.46.111,2.3,2.3,0,0,0,1.894-1.374,4.731,4.731,0,0,0,.734-2.439,1.733,1.733,0,0,0-.095-.636" transform="translate(-2054.279 -640.573)"/><path class="a" d="M2229.01,737.7a3.526,3.526,0,0,1,2.525-1.283,1.215,1.215,0,0,1,.766.222.79.79,0,0,1,.282.659,1.8,1.8,0,0,1-1.039,1.517,5.436,5.436,0,0,1-2.188.774l-.352.043c-.052.17-.091.3-.111.4a1.919,1.919,0,0,0-.031.38,1.053,1.053,0,0,0,.354.846,1.268,1.268,0,0,0,.843.3,1.941,1.941,0,0,0,.982-.308,7.947,7.947,0,0,0,.857-.641l.16.14a3.9,3.9,0,0,1-.795.724,3.166,3.166,0,0,1-1.846.659,1.632,1.632,0,0,1-1.147-.462,1.728,1.728,0,0,1-.495-1.324,3.822,3.822,0,0,1,1.234-2.651m2,.827a1.812,1.812,0,0,0,.741-1.3.574.574,0,0,0-.112-.372.4.4,0,0,0-.327-.139,1.184,1.184,0,0,0-.786.343,4.625,4.625,0,0,0-.7.77,5.968,5.968,0,0,0-.516.967c-.073.166-.147.351-.222.561a3.611,3.611,0,0,0,1.917-.829" transform="translate(-2085.875 -640.647)"/><path class="a" d="M2259.006,736.242a.156.156,0,0,1,.021.078c0,.041-.008.072-.012.094l-.627,2.408.142-.287a8.589,8.589,0,0,1,1.039-1.589,1.6,1.6,0,0,1,1.131-.719.55.55,0,0,1,.449.191.724.724,0,0,1,0,.9.547.547,0,0,1-.435.181.492.492,0,0,1-.288-.072.577.577,0,0,1-.154-.174l-.073-.136a.21.21,0,0,0-.059-.059.162.162,0,0,0-.084-.021c-.16,0-.393.224-.7.673a10.057,10.057,0,0,0-.81,1.456c-.145.315-.3.737-.483,1.259q-.166.494-.448,1.4h-.948l1.029-3.714c.057-.215.106-.406.138-.575a2.065,2.065,0,0,0,.052-.413.4.4,0,0,0-.091-.282.43.43,0,0,0-.322-.1c-.05,0-.11,0-.185.012l-.265.031v-.2l.248-.051q.481-.1,1.051-.209c.382-.076.584-.111.6-.111a.088.088,0,0,1,.078.033" transform="translate(-2108.917 -640.479)"/><path class="a" d="M2286.162,725.68a.05.05,0,0,1,.029.053l-1.246,4.406a2.824,2.824,0,0,0-.085.419.354.354,0,0,0,.035.162c.021.049.074.074.156.074.138,0,.323-.123.553-.365a6.917,6.917,0,0,0,.5-.618l.163.137-.063.086a6.546,6.546,0,0,1-.767.932,1.392,1.392,0,0,1-.925.445.545.545,0,0,1-.442-.223.828.828,0,0,1-.175-.524,1.856,1.856,0,0,1,.023-.312c.018-.088.049-.218.094-.392l.879-3.172c.011-.049.022-.094.031-.135a.767.767,0,0,0,.013-.125c0-.148-.056-.24-.164-.273a2.542,2.542,0,0,0-.644-.053V726c.338-.041.581-.073.731-.1l.45-.072c.195-.031.381-.068.556-.109a.735.735,0,0,1,.3-.041m-.583-1.546a.692.692,0,0,1-.178-.475.7.7,0,0,1,.178-.482.568.568,0,0,1,.434-.2.579.579,0,0,1,.435.2.692.692,0,0,1,.181.482.675.675,0,0,1-.181.478.578.578,0,0,1-.435.195.561.561,0,0,1-.434-.2" transform="translate(-2130.629 -629.929)"/><path class="a" d="M2303.02,737.7a3.532,3.532,0,0,1,2.525-1.283,1.21,1.21,0,0,1,.766.222.789.789,0,0,1,.283.659,1.8,1.8,0,0,1-1.039,1.517,5.435,5.435,0,0,1-2.189.774l-.351.043c-.053.17-.092.3-.112.4a1.917,1.917,0,0,0-.031.38,1.055,1.055,0,0,0,.355.846,1.268,1.268,0,0,0,.843.3,1.938,1.938,0,0,0,.982-.308,7.979,7.979,0,0,0,.859-.641l.159.14a3.914,3.914,0,0,1-.8.724,3.165,3.165,0,0,1-1.846.659,1.626,1.626,0,0,1-1.146-.462,1.725,1.725,0,0,1-.5-1.324,3.83,3.83,0,0,1,1.233-2.651m2,.827a1.811,1.811,0,0,0,.742-1.3.581.581,0,0,0-.112-.372.4.4,0,0,0-.328-.139,1.18,1.18,0,0,0-.785.343,4.576,4.576,0,0,0-.7.77,6.1,6.1,0,0,0-.518.967c-.071.166-.146.351-.221.561a3.613,3.613,0,0,0,1.918-.829" transform="translate(-2144.897 -640.647)"/><path class="a" d="M2330.228,741.942l1.055-3.813c.091-.323.145-.519.157-.586a1.045,1.045,0,0,0,.022-.221.381.381,0,0,0-.1-.283.568.568,0,0,0-.4-.1c-.049,0-.1,0-.144.008l-.158.021v-.2c.264-.041.453-.072.565-.091s.235-.045.366-.074l1.095-.242a.123.123,0,0,1,.05.057l-.817,2.653a14.591,14.591,0,0,1,1.267-1.716,2.4,2.4,0,0,1,1.6-.994.987.987,0,0,1,.47.105.761.761,0,0,1,.379.735,1.569,1.569,0,0,1-.031.308c-.02.107-.047.222-.081.345l-.813,2.956c-.015.062-.032.138-.054.226a.917.917,0,0,0-.031.189.327.327,0,0,0,.042.166.149.149,0,0,0,.138.074.556.556,0,0,0,.355-.189,6.912,6.912,0,0,0,.657-.8l.18.16a7.57,7.57,0,0,1-.789.963,1.414,1.414,0,0,1-.949.487.673.673,0,0,1-.4-.139.586.586,0,0,1-.191-.5,1.687,1.687,0,0,1,.016-.222,1.063,1.063,0,0,1,.041-.2l.788-3a3.41,3.41,0,0,0,.081-.406,1.594,1.594,0,0,0,.022-.224.461.461,0,0,0-.07-.257.282.282,0,0,0-.254-.107q-.467,0-1.181.838a10.736,10.736,0,0,0-.85,1.191,6.21,6.21,0,0,0-.507,1.043q-.185.512-.588,1.852Z" transform="translate(-2167.579 -640.596)"/><path class="a" d="M2368.328,736.761a.964.964,0,0,1,.333.659.568.568,0,0,1-.579.607.546.546,0,0,1-.383-.141.467.467,0,0,1-.155-.352.739.739,0,0,1,.1-.345.716.716,0,0,0,.1-.24.219.219,0,0,0-.127-.189.807.807,0,0,0-.4-.076,2.069,2.069,0,0,0-1.725,1.131,4.3,4.3,0,0,0-.731,2.372,1.807,1.807,0,0,0,.3,1.094,1.04,1.04,0,0,0,.89.394,1.733,1.733,0,0,0,.922-.275,3.608,3.608,0,0,0,.824-.7l.043-.049.179.137a4.553,4.553,0,0,1-.833.844,2.617,2.617,0,0,1-1.574.513,1.773,1.773,0,0,1-1.338-.528,1.969,1.969,0,0,1-.515-1.441,3.648,3.648,0,0,1,1.142-2.579,3.364,3.364,0,0,1,2.445-1.172,1.478,1.478,0,0,1,1.087.337" transform="translate(-2194.236 -640.651)"/><path class="a" d="M2394.3,737.7a3.524,3.524,0,0,1,2.524-1.283,1.213,1.213,0,0,1,.766.222.788.788,0,0,1,.283.659,1.8,1.8,0,0,1-1.04,1.517,5.435,5.435,0,0,1-2.19.774l-.35.043c-.053.17-.092.3-.111.4a1.9,1.9,0,0,0-.031.38,1.058,1.058,0,0,0,.354.846,1.271,1.271,0,0,0,.843.3,1.949,1.949,0,0,0,.983-.308,8.033,8.033,0,0,0,.856-.641l.161.14a3.894,3.894,0,0,1-.8.724,3.162,3.162,0,0,1-1.846.659,1.63,1.63,0,0,1-1.147-.462,1.729,1.729,0,0,1-.5-1.324,3.826,3.826,0,0,1,1.235-2.651m2,.827a1.81,1.81,0,0,0,.742-1.3.573.573,0,0,0-.112-.372.393.393,0,0,0-.327-.139,1.18,1.18,0,0,0-.786.343,4.609,4.609,0,0,0-.7.77,6.063,6.063,0,0,0-.516.967c-.073.166-.146.351-.222.561a3.6,3.6,0,0,0,1.917-.829" transform="translate(-2217.695 -640.647)"/><path class="a" d="M2421.644,740.1h.2a3.918,3.918,0,0,0,.322,1.092,1.082,1.082,0,0,0,1.011.635.843.843,0,0,0,.634-.265.975.975,0,0,0,.255-.7,1.32,1.32,0,0,0-.063-.444,1.526,1.526,0,0,0-.164-.314l-.513-.758q-.463-.693-.581-.926a1.536,1.536,0,0,1-.179-.7,1.348,1.348,0,0,1,.384-.947,1.438,1.438,0,0,1,1.1-.411,2.485,2.485,0,0,1,.691.115,2.348,2.348,0,0,0,.531.115.352.352,0,0,0,.228-.062.6.6,0,0,0,.136-.168h.181l-.253,1.755h-.2a2.728,2.728,0,0,0-.241-.9.987.987,0,0,0-.938-.564.769.769,0,0,0-.484.17.6.6,0,0,0-.212.5.969.969,0,0,0,.1.445,6.563,6.563,0,0,0,.435.68l.438.628a5.683,5.683,0,0,1,.481.8,1.584,1.584,0,0,1,.143.667,1.4,1.4,0,0,1-.568,1.123,2.1,2.1,0,0,1-1.353.456,3.553,3.553,0,0,1-.721-.105,4.751,4.751,0,0,0-.544-.105.257.257,0,0,0-.182.057.536.536,0,0,0-.107.166h-.2Z" transform="translate(-2240.287 -640.594)"/><path class="a" d="M1537.582,629.733h.3v4.073h-.3a7.838,7.838,0,0,0-1.214-2.294,4.894,4.894,0,0,0-1.238-1.018,6.811,6.811,0,0,0-1.667-.688,7.084,7.084,0,0,0-1.866-.251,3.761,3.761,0,0,0-1.26.2,2.465,2.465,0,0,0-.936.577,2.19,2.19,0,0,0-.432.612,1.5,1.5,0,0,0-.162.655,1.366,1.366,0,0,0,.458,1.029,2.329,2.329,0,0,0,.609.407,6.584,6.584,0,0,0,1.021.384q.624.187,1.747.458a3.7,3.7,0,0,0,.416.111l.419.1.66.169a18.479,18.479,0,0,1,2.458.766,4.12,4.12,0,0,1,1.318.877,2.807,2.807,0,0,1,.659.934,2.85,2.85,0,0,1,.234,1.156,3.121,3.121,0,0,1-.263,1.23,3.327,3.327,0,0,1-.749,1.082,3.942,3.942,0,0,1-1.552.971,6.362,6.362,0,0,1-2.105.322,7.061,7.061,0,0,1-1.552-.164,11.16,11.16,0,0,1-1.772-.608,10.371,10.371,0,0,0-1.037-.371,2.593,2.593,0,0,0-.673-.1,1.661,1.661,0,0,0-1.024.317,1.512,1.512,0,0,0-.555.907h-.3v-5.494h.3a4.953,4.953,0,0,0,1.181,2.653,6.963,6.963,0,0,0,1.542,1.3,8.532,8.532,0,0,0,1.969.932,6.385,6.385,0,0,0,1.955.331,4.047,4.047,0,0,0,1.509-.273,2.484,2.484,0,0,0,1.069-.756,1.727,1.727,0,0,0,.38-1.1,1.611,1.611,0,0,0-.516-1.164,2.607,2.607,0,0,0-.616-.425,7.363,7.363,0,0,0-.979-.4c-.4-.137-.949-.3-1.645-.486l-.85-.23q-1.991-.535-2.755-.832a6.875,6.875,0,0,1-1.349-.63,3.179,3.179,0,0,1-.846-.8,2.389,2.389,0,0,1-.526-1.5,2.888,2.888,0,0,1,.587-1.774,3.841,3.841,0,0,1,1.64-1.228,6.009,6.009,0,0,1,2.339-.443,8.736,8.736,0,0,1,4.021,1.08,2.9,2.9,0,0,0,.995.365c.442,0,.76-.324.953-.977" transform="translate(-1527.047 -555.192)"/><path class="a" d="M1599.71,630.444h8.239v.314h-.944a1.9,1.9,0,0,0-2.16,2.16v6.03a3.192,3.192,0,0,0,.478,1.768,3.07,3.07,0,0,0,1.369,1.138,5.157,5.157,0,0,0,2.125.4,6.379,6.379,0,0,0,2.015-.31,3.8,3.8,0,0,0,1.489-.854,4,4,0,0,0,1.01-2.908V633.93a2.986,2.986,0,0,0-1.189-2.77,2.3,2.3,0,0,0-.715-.3,5.657,5.657,0,0,0-1.078-.1v-.314h5.764v.314a3.917,3.917,0,0,0-.852.145,2.433,2.433,0,0,0-.646.341,2.318,2.318,0,0,0-.74.973,3.687,3.687,0,0,0-.254,1.433v4.735a3.849,3.849,0,0,1-1.029,2.891,3.5,3.5,0,0,1-1.216.784,9.251,9.251,0,0,1-3.238.509,10.755,10.755,0,0,1-2.516-.271,5.625,5.625,0,0,1-1.871-.774,3.135,3.135,0,0,1-1.4-2.754v-5.851a1.909,1.909,0,0,0-2.161-2.16h-.483Z" transform="translate(-1584.996 -556.132)"/><path class="a" d="M1693.037,630.444h4.771l8.256,8.555v-5.12a3.927,3.927,0,0,0-.32-1.637,2.325,2.325,0,0,0-.922-1.066,2.282,2.282,0,0,0-.648-.289,5.493,5.493,0,0,0-.915-.129v-.314h5.883v.314h-.118a2.389,2.389,0,0,0-1.956.817,3.649,3.649,0,0,0-.67,2.373v8.494h-.282l-10.254-10.535v7.057a4.486,4.486,0,0,0,.247,1.645,1.959,1.959,0,0,0,.8.965,2.7,2.7,0,0,0,1.1.349,8.913,8.913,0,0,0,1.02.086v.314h-6.2v-.314a4.19,4.19,0,0,0,1.551-.335,1.859,1.859,0,0,0,.885-.848,3.059,3.059,0,0,0,.285-1.394v-6.718a1.934,1.934,0,0,0-.277-1.055,1.774,1.774,0,0,0-.8-.667,3.135,3.135,0,0,0-1.275-.234h-.154Z" transform="translate(-1659.255 -556.132)"/><path class="a" d="M1799.418,629.733h.3v4.073h-.3a7.843,7.843,0,0,0-1.215-2.294,4.893,4.893,0,0,0-1.238-1.018,6.813,6.813,0,0,0-1.667-.688,7.082,7.082,0,0,0-1.865-.251,3.756,3.756,0,0,0-1.26.2,2.466,2.466,0,0,0-.936.577,2.183,2.183,0,0,0-.432.612,1.506,1.506,0,0,0-.163.655,1.366,1.366,0,0,0,.459,1.029,2.317,2.317,0,0,0,.608.407,6.569,6.569,0,0,0,1.021.384q.623.187,1.747.458a3.736,3.736,0,0,0,.415.111l.419.1.661.169a18.494,18.494,0,0,1,2.458.766,4.119,4.119,0,0,1,1.318.877,2.805,2.805,0,0,1,.659.934,2.847,2.847,0,0,1,.234,1.156,3.112,3.112,0,0,1-.263,1.23,3.324,3.324,0,0,1-.748,1.082,3.948,3.948,0,0,1-1.552.971,6.37,6.37,0,0,1-2.106.322,7.063,7.063,0,0,1-1.552-.164,11.176,11.176,0,0,1-1.773-.608,10.273,10.273,0,0,0-1.037-.371,2.587,2.587,0,0,0-.673-.1,1.659,1.659,0,0,0-1.023.317,1.508,1.508,0,0,0-.556.907h-.3v-5.494h.3a4.952,4.952,0,0,0,1.181,2.653,6.954,6.954,0,0,0,1.542,1.3,8.517,8.517,0,0,0,1.969.932,6.389,6.389,0,0,0,1.955.331,4.052,4.052,0,0,0,1.509-.273,2.487,2.487,0,0,0,1.068-.756,1.723,1.723,0,0,0,.381-1.1,1.61,1.61,0,0,0-.517-1.164,2.613,2.613,0,0,0-.615-.425,7.38,7.38,0,0,0-.979-.4c-.4-.137-.949-.3-1.645-.486l-.85-.23q-1.991-.535-2.754-.832a6.861,6.861,0,0,1-1.349-.63,3.152,3.152,0,0,1-.846-.8,2.385,2.385,0,0,1-.527-1.5,2.886,2.886,0,0,1,.587-1.774,3.842,3.842,0,0,1,1.64-1.228,6,6,0,0,1,2.339-.443,8.738,8.738,0,0,1,4.022,1.08,2.889,2.889,0,0,0,.995.365c.442,0,.76-.324.953-.977" transform="translate(-1735.86 -555.192)"/><path class="a" d="M1860.871,630.444h12.637v4.6h-.255a13.81,13.81,0,0,0-.626-1.8,5.008,5.008,0,0,0-.72-1.135,3.168,3.168,0,0,0-1.164-.911,6.614,6.614,0,0,0-2.542-.435h-2.338v5.648h.628a2.569,2.569,0,0,0,2.228-1.209,4.37,4.37,0,0,0,.628-1.48,8.011,8.011,0,0,0,.189-1.08h.3v7.789h-.3c-.068-.417-.15-.815-.243-1.186a4.527,4.527,0,0,0-.314-.906,4.211,4.211,0,0,0-.448-.7,2.641,2.641,0,0,0-2.176-.944h-.491v5.316h1.954a8.983,8.983,0,0,0,1.561-.123,5.03,5.03,0,0,0,1.246-.384,4.52,4.52,0,0,0,1.037-.677,4.738,4.738,0,0,0,1.293-1.76,13.483,13.483,0,0,0,.553-1.632h.313v4.889h-12.933l-.018-.314h.323a1.917,1.917,0,0,0,2.16-2.177v-6.913a1.885,1.885,0,0,0-2.16-2.16h-.323Z" transform="translate(-1793.27 -556.132)"/><path class="a" d="M1940.339,630.444h13.927v6.028l-.271.017a7.887,7.887,0,0,0-1.361-3.887,4.13,4.13,0,0,0-3.453-1.844h-.619v9.073a1.9,1.9,0,0,0,2.149,2.16h1.8v.332h-10.373v-.332h1.775a1.909,1.909,0,0,0,2.16-2.16v-9.073h-.766a4,4,0,0,0-3.452,1.991,7.367,7.367,0,0,0-.994,2.33,12.647,12.647,0,0,0-.221,1.394h-.3Z" transform="translate(-1856.645 -556.132)"/><path class="a" d="M2058.172,630.444h6.182l.018.314a2.447,2.447,0,0,0-1.111.205.65.65,0,0,0-.354.612,2.641,2.641,0,0,0,.153.858l2.508,6.948,2.424-6.03a8.564,8.564,0,0,0-.522-1.273,3.084,3.084,0,0,0-.572-.741,1.761,1.761,0,0,0-.635-.45,2.176,2.176,0,0,0-.8-.129v-.314h6.448v.314h-.316a2.316,2.316,0,0,0-1.192.259.835.835,0,0,0-.423.753,1.709,1.709,0,0,0,.118.63l2.559,6.981,2.509-6.394a2.783,2.783,0,0,0,.188-.936,1.052,1.052,0,0,0-.5-.951,3.085,3.085,0,0,0-1.536-.341l-.015-.314h4.768v.314a2.636,2.636,0,0,0-.768.15,2.79,2.79,0,0,0-.645.378,4.257,4.257,0,0,0-1.213,1.811l-3.733,9.49h-.313l-3.25-8.852-3.539,8.852h-.33l-3.435-9.406a5.012,5.012,0,0,0-1.012-1.852,1.85,1.85,0,0,0-1.37-.571h-.3Z" transform="translate(-1950.616 -556.132)"/><path class="a" d="M2178.945,629.268a8.414,8.414,0,0,1,3.049.532,6.811,6.811,0,0,1,2.4,1.549,6.359,6.359,0,0,1,1.325,1.936,5.366,5.366,0,0,1,.468,2.181,5.432,5.432,0,0,1-.947,3.086,6.661,6.661,0,0,1-2.577,2.236,7.785,7.785,0,0,1-3.568.824,8.183,8.183,0,0,1-2.783-.468,7.229,7.229,0,0,1-2.3-1.322,6.205,6.205,0,0,1-1.552-1.994,5.4,5.4,0,0,1,.4-5.458,6.836,6.836,0,0,1,2.577-2.268,7.515,7.515,0,0,1,3.5-.836m.22.306a3.992,3.992,0,0,0-1.458.267,3.154,3.154,0,0,0-1.152.76,5.133,5.133,0,0,0-.872,1.273,6.618,6.618,0,0,0-.543,1.639,9.788,9.788,0,0,0-.184,1.953,9.192,9.192,0,0,0,.291,2.384,5.853,5.853,0,0,0,.833,1.854,3.757,3.757,0,0,0,1.3,1.185,3.692,3.692,0,0,0,3.873-.31,4.512,4.512,0,0,0,1.43-2.053,9.106,9.106,0,0,0,.5-3.172,8.783,8.783,0,0,0-.273-2.228,6.048,6.048,0,0,0-.782-1.807,4.052,4.052,0,0,0-1.234-1.221,3.24,3.24,0,0,0-.823-.382,3.009,3.009,0,0,0-.9-.144" transform="translate(-2041.318 -555.194)"/><path class="a" d="M2268.508,636.51h-2.67v3.326a1.9,1.9,0,0,0,2.16,2.158h.348v.333h-7.5v-.333h.325a1.891,1.891,0,0,0,2.159-2.158v-6.915a1.881,1.881,0,0,0-2.159-2.158h-.325v-.314h9.208a12.72,12.72,0,0,1,2.96.271,3.59,3.59,0,0,1,1.727.918,2.8,2.8,0,0,1,.583.868,2.512,2.512,0,0,1,.217.994,2.441,2.441,0,0,1-1.4,2.16,6.145,6.145,0,0,1-1.41.5,11.636,11.636,0,0,1-1.777.3q-.672.05-2.049.05v.035q.679.441,1.231.731a9,9,0,0,0,1.113.489,11.219,11.219,0,0,0,1.277.361l.279.425c.189.271.328.476.417.612l.316.468q.477.722.9,1.253a4.635,4.635,0,0,0,.709.745,2.871,2.871,0,0,0,1.583.364h.329v.333h-4.455Zm-2.67-.314h3.385a5.566,5.566,0,0,0,1.969-.294,2.244,2.244,0,0,0,1.147-.893,2.839,2.839,0,0,0,.379-1.542q0-2.705-3.445-2.7h-3.435Z" transform="translate(-2112.247 -556.136)"/><path class="a" d="M2353.019,630.444h8.1v.314h-.86a1.884,1.884,0,0,0-2.152,2.16v9.091h3.078a3.785,3.785,0,0,0,1.718-.4,4.305,4.305,0,0,0,1.4-1.127,9.338,9.338,0,0,0,.63-.895,6.686,6.686,0,0,0,.519-1.07q.246-.629.485-1.445h.313v5.254h-13.238l-.018-.314h.443a1.918,1.918,0,0,0,2.16-2.177v-6.913a1.91,1.91,0,0,0-2.16-2.16h-.425Z" transform="translate(-2185.74 -556.132)"/><path class="a" d="M2432.26,630.446h7.885a10.579,10.579,0,0,1,3.351.48,6,6,0,0,1,2.41,1.476,6.193,6.193,0,0,1,1.367,1.938,5.41,5.41,0,0,1,.48,2.22,5.205,5.205,0,0,1-.518,2.312,5.388,5.388,0,0,1-1.468,1.837,6.831,6.831,0,0,1-2.249,1.195,9.1,9.1,0,0,1-2.816.421h-8.442v-.333h.434a1.89,1.89,0,0,0,2.158-2.158V632.92a1.881,1.881,0,0,0-2.158-2.16h-.434Zm5.1.314v11.231h2.3a10.545,10.545,0,0,0,1.656-.109,4.251,4.251,0,0,0,1.192-.361,3.118,3.118,0,0,0,.892-.659,6.1,6.1,0,0,0,1.411-4.421,9.479,9.479,0,0,0-.173-1.851,6.161,6.161,0,0,0-.507-1.534,4.528,4.528,0,0,0-.833-1.166,3.515,3.515,0,0,0-.94-.659,4.466,4.466,0,0,0-1.208-.362,10.7,10.7,0,0,0-1.645-.109Z" transform="translate(-2248.95 -556.134)"/><path class="a" d="M1955.105,337.68l-5.726-9.322-5.724-3.887-.511,4.345,8.3,12.98,4.292.174Zm-27.241,9.946-2.579,6.921,10.248,4.862,8.81-3.55-4.12-4.573Zm-1.889-7.831-12.192.569-.23,5.776,4.177,10.065,6.235-2.23,2.525-7.433Zm2.919-2.749-2.062-6.4-6.237,7.831,5.9.23Zm14.251,6.864-5.152-7.66-1.946,6.459,6.352,3.09Zm-3.091,5.718,1.772-3.086-6.583-2.69,1.552,4.977Z" transform="translate(-1835.283 -312.12)"/><path class="a" d="M1996.463,272.788l5.438-.245,3.919-.374-4.7-8.685-2.744,4.17Z" transform="translate(-1901.404 -263.483)"/><path class="a" d="M1884.689,353.787l2.394-4.88,1.558-3.61-9.88-.064,2.339,4.41Z" transform="translate(-1807.536 -328.678)"/><path class="a" d="M1892.547,462.731l-2.725-4.7-2.137-3.3-5.548,8.168,4.97.511Z" transform="translate(-1810.229 -416)"/><path class="a" d="M2001.239,531.211l-5.437-.058-3.93.148,4.192,8.939,2.978-4.006Z" transform="translate(-1897.742 -476.948)"/><path class="a" d="M2110.467,454.908l-2.586,4.78-1.7,3.546,9.869.464-2.162-4.5Z" transform="translate(-1988.901 -416.143)"/><path class="a" d="M2104.428,343.459l2.793,4.665,2.183,3.265,5.434-8.241-4.977-.441Z" transform="translate(-1987.505 -326.665)"/><path class="a" d="M1953.836,343.271l-7.1,1.768-2.8,5.092,7.271,9.605,2.461-2.117,3.205-5.431,1.49-8.119Zm-26.5,12.75-5.609,2.17,4.291,3.72,9.215,3.2,2.751-.057-.121-4.343Zm.456-31-6.352,4.806-4.636,8.977,4.693-.056,7.782-9.093Zm2.232,14.925,7.726,2.8,1.776-7.143-6.466,2.168Z" transform="translate(-1837.876 -312.562)"/><path class="a" d="M2052.01,286.5l2.369-3.673,2.088-1.811-.172,4.911.681,3.419-2.822-2.193Z" transform="translate(-1945.702 -277.469)"/><path class="a" d="M1923.131,312.558l-2.086-3.842-.587-2.7,4.228,2.507,3.327,1.049-3.277,1.415Z" transform="translate(-1840.79 -297.404)"/><path class="a" d="M1879.69,423.256l-4.359-.4-2.565-1.014,4.437-2.115,2.723-2.182-.651,3.511Z" transform="translate(-1802.756 -386.344)"/><path class="a" d="M1963.983,517.346l-2.574,3.534-2.186,1.684.447-4.887-.488-3.456,2.688,2.353Z" transform="translate(-1871.672 -463.445)"/><path class="a" d="M2080.375,503.021l1.937,3.921.471,2.723-4.121-2.675-3.281-1.183,3.33-1.282Z" transform="translate(-1964.34 -454.513)"/><path class="a" d="M2131.368,394.527l4.365.345,2.579.977-4.406,2.175-2.692,2.217.6-3.513Z" transform="translate(-2008.867 -367.99)"/><path class="a" d="M1987.514,326.029l5.328-4.406.051-5.831-4.519-1.2-10.929,1.657,3.6,11.892Zm7.783,9.605,5.838-1.373-7.553-12.068-4.638,4.121Zm-7.95,16.867,1.085,4.176,5.555-1.485,4.406-2.69-2.347-3.429Zm-9.272-19.5.512,5.429,7.781,2.345-1.54-5.488Z" transform="translate(-1886.237 -304.243)"/><path class="a" d="M1973.106,286.639l-3.016-4.433-2.442-1.663.244,5.17.516,1.848,3.088-.058Z" transform="translate(-1878.423 -277.088)"/><path class="a" d="M1876.806,389.7l-5.346.511-2.634,1.337,4.655,2.275,1.871.435,1.428-2.729Z" transform="translate(-1799.614 -364.142)"/><path class="a" d="M1924.093,495.355l-2.542,4.72-.352,2.93,4.478-2.6,1.4-1.314-1.479-2.708Z" transform="translate(-1841.382 -448.4)"/><path class="a" d="M2040.065,527.293l2.764,4.595,2.343,1.8.049-5.18-.413-1.871-3.086-.115Z" transform="translate(-1936.176 -473.256)"/><path class="a" d="M2127.255,434.983l5.359-.292,2.689-1.236-4.562-2.462-1.852-.5-1.541,2.673Z" transform="translate(-2005.709 -396.668)"/><path class="a" d="M2090.515,315.062l2.472-4.755.312-2.938-4.441,2.657-1.384,1.335,1.517,2.688Z" transform="translate(-1973.984 -298.482)"/></g></svg>